<svg xmlns="http://www.w3.org/2000/svg" width="88" height="28" viewBox="0 0 88 28">
    <defs>
        <linearGradient id="prefix__a" x1="0%" x2="100%" y1="50%" y2="50%">
            <stop offset="0%" stop-color="#FF585D"/>
            <stop offset="49%" stop-color="#FD575C"/>
            <stop offset="76%" stop-color="#F55259"/>
            <stop offset="97%" stop-color="#E74955"/>
            <stop offset="99%" stop-color="#E54854"/>
        </linearGradient>
    </defs>
    <g fill="none">
        <path fill="url(#prefix__a)" d="M15.5 2.776C13.861 1.065 11.555 0 9 0 4.03 0 0 4.03 0 9c0 2.485 1.008 4.735 2.636 6.364C4.265 16.992 6.515 18 9 18c1.005 0 1.971-.165 2.874-.469 1.392-.468 2.632-1.268 3.626-2.307C17.049 13.607 18 11.415 18 9s-.951-4.607-2.5-6.224zM9 13c-1.105 0-2.105-.447-2.829-1.171C5.447 11.105 5 10.105 5 9c0-2.209 1.791-4 4-4s4 1.791 4 4-1.791 4-4 4z"/>
        <path fill="#FF585D" d="M13 9c0 1.105-.447 2.105-1.171 2.829C11.105 12.552 10.105 13 9 13c-2.209 0-4-1.791-4-4H0c0 4.97 4.03 9 9 9 2.485 0 4.735-1.008 6.364-2.636C16.992 13.735 18 11.485 18 9h-5z"/>
        <path fill="#FF585D" d="M22 0c-2.555 0-4.861 1.065-6.5 2.776C13.951 4.393 13 6.585 13 9s.951 4.607 2.5 6.224C17.049 13.607 18 11.415 18 9c0-2.209 1.791-4 4-4s4 1.791 4 4c0 1.105-.448 2.105-1.171 2.829l-5.703 5.702c.903.304 1.869.469 2.874.469 2.485 0 4.735-1.008 6.364-2.636C29.992 13.735 31 11.485 31 9c0-4.97-4.03-9-9-9z"/>
        <path fill="#FF585D" d="M15.5 28L19.035 24.692 28.364 15.364 24.829 11.829 15.5 21.157 13.383 19.04 9.848 22.575z"/>
        <g fill="#100906">
            <path d="M51 6.154L51 10.256 48.5 10.256 48.5 19.487 44.5 19.487 44.5 10.256 42 10.256 42 6.154 44.5 6.154 44.5 1.026 48.5 1.026 48.5 6.154zM35.75 2.308C35.75.992 36.789 0 38.025 0s2.225.992 2.225 2.308c0 1.261-.989 2.307-2.225 2.307-1.236 0-2.275-1.046-2.275-2.307zM36 6.154H40V19.487000000000002H36zM34.5 6.154L30.5 19.487 26.5 19.487 24.5 12.821 22.5 19.487 18.5 19.487 14.5 6.154 18.5 6.154 20.5 12.821 22.5 6.154 26.5 6.154 28.5 12.821 30.5 6.154zM8.184 8.506L6.25 7.9c-1.719-.496-1.826-1.351-1.826-1.737 0-1.048.858-1.875 2.175-1.875 1.35 0 2.026.839 2.112 1.866h4.22C12.821 2.6 10.15.513 6.68.513 3 .513.155 2.828.155 6.246c0 1.791.779 4.355 4.859 5.485l2.202.69c1.638.55 2.042 1.24 2.042 1.984 0 1.24-1.048 1.874-2.418 1.874-1.356 0-2.479-.82-2.616-1.92H0C.116 17.733 2.821 20 6.68 20c3.384 0 6.82-1.736 6.82-5.815 0-3.447-2.685-4.852-5.316-5.679z" transform="translate(37 5)"/>
        </g>
    </g>
</svg>
